#define font3_width 64
#define font3_height 192
static unsigned char font3_bits[] = {
0x00, 0x00, 0x00, 0x00, 0x00, 0x00, 0x00, 0x00, 0x00, 0x00, 0x00, 0x00, 0x20, 0x01, 0x00, 0x00, 0x00, 0x00, 0x00, 0x00, 0xf8, 0x07, 0x00, 0x00, 0x00, 0x00, 0x00, 0xc0, 0x21, 0x01, 0x00, 0x00, 0x00, 0xa0, 0x3f, 0x00, 0x20, 0x01, 0x00, 0x00, 0x00, 0x00, 0x00, 0xc0, 0xf9, 0x07, 0x00, 0x00, 0x00, 0x00, 0x00, 0x00, 0x20, 0x01, 0x00, 0x00, 0x00, 0x00, 0x00, 0x00, 0x00, 0x00, 0x00, 0x00, 0x00, 0x20, 0x0c, 0x00, 0x00, 0x00, 0x00, 0x00, 0x90, 0x41, 0x12, 0xee, 0x00, 0x00, 0x00, 0x00, 0x48, 0x82, 0x12, 0x11, 0x01, 0x00, 0x00, 0x00, 0xc8, 0x07, 0x0d, 0x11, 0x01, 0x00, 0x00, 0x00, 0x7c, 0xc2, 0x02, 0xe9, 0x00, 0x0e, 0x00, 0x00, 0x48, 0x22, 0x05, 0x06, 0x00, 0x00, 0x00, 0x00, 0x30, 0x21, 0x09, 0x09, 0x00, 0x00, 0x00, 0x00, 0x00, 0xc0, 0x10, 0x00, 0x00, 0x00, 0x00, 0x00, 0x00, 0x00, 0x00, 0x00, 0x00, 0x00, 0x00, 0x00, 0x00, 0x00, 0x00, 0x08, 0x40, 0x00, 0x00, 0x00, 0x00, 0x00, 0x00, 0x2a, 0x40, 0x00, 0x00, 0x00, 0xe0, 0x20, 0x20, 0x1c, 0x40, 0x00, 0x00, 0x00, 0x18, 0xc3, 0x18, 0x1c, 0xf8, 0x03, 0x00, 0x00, 0x04, 0x04, 0x07, 0x2a, 0x40, 0x00, 0x00, 0x00, 0x00, 0x00, 0x00, 0x08, 0x40, 0x00, 0x00, 0x00, 0x00, 0x00, 0x00, 0x00, 0x40, 0x00, 0x00, 0x00, 0x00, 0x00, 0x00, 0x00, 0x00, 0x00, 0x00, 0x00, 0x00, 0x00, 0x01, 0x00, 0x08, 0x00, 0x00, 0x00, 0x00, 0x00, 0x01, 0x00, 0x30, 0x00, 0x00, 0x00, 0x00, 0x00, 0x01, 0x01, 0xc0, 0x00, 0x00, 0x00, 0x01, 0x00, 0x01, 0x01, 0x00, 0x03, 0x00, 0x00, 0x0e, 0x00, 0x01, 0x00, 0x00, 0x0c, 0x00, 0x00, 0x00, 0x00, 0x00, 0x00, 0x00, 0x00, 0x00, 0x00, 0x00, 0x00, 0x00, 0x00, 0x00, 0x00, 0x00, 0x00, 0x00, 0x00, 0x00, 0x00, 0x00, 0x00, 0x00, 0x00, 0x00, 0x00, 0x00, 0xc3, 0x10, 0x04, 0x00, 0x00, 0xf8, 0x23, 0x08, 0x05, 0x09, 0x08, 0x00, 0x00, 0x14, 0x24, 0x10, 0x09, 0x89, 0x08, 0x00, 0x00, 0xe4, 0xe4, 0x3f, 0x11, 0x89, 0x08, 0x00, 0x00, 0x04, 0x25, 0x00, 0x21, 0x89, 0x08, 0x00, 0x00, 0xf8, 0x23, 0x00, 0xc1, 0x70, 0x07, 0x00, 0x00, 0x00, 0x00, 0x00, 0x00, 0x00, 0x00, 0x00, 0x00, 0x00, 0x00, 0x00, 0x00, 0x00, 0x00, 0x00, 0x00, 0x60, 0x40, 0x3e, 0xfe, 0x00, 0x08, 0x00, 0x00, 0xa0, 0x20, 0x22, 0x11, 0x01, 0x08, 0x00, 0x00, 0x20, 0x21, 0x22, 0x11, 0x19, 0x08, 0x00, 0x00, 0x20, 0x22, 0x22, 0x11, 0x61, 0x08, 0x00, 0x00, 0xfc, 0x27, 0x22, 0x11, 0x81, 0x09, 0x00, 0x00, 0x20, 0xc0, 0x21, 0x8e, 0x00, 0x0e, 0x00, 0x00, 0x00, 0x00, 0x00, 0x00, 0x00, 0x00, 0x00, 0x00, 0x00, 0x00, 0x00, 0x00, 0x00, 0x00, 0x00, 0x00, 0xb8, 0x43, 0x1c, 0x00, 0x00, 0x00, 0x00, 0x00, 0x44, 0x24, 0x22, 0x00, 0x42, 0x00, 0x00, 0x00, 0x44, 0x24, 0x22, 0x63, 0x4c, 0x00, 0x00, 0x00, 0x44, 0x24, 0x22, 0x63, 0x00, 0x00, 0x00, 0x00, 0x44, 0x24, 0x22, 0x00, 0x00, 0x00, 0x00, 0x00, 0xb8, 0xc3, 0x1f, 0x00, 0x00, 0x00, 0x00, 0x00, 0x00, 0x00, 0x00, 0x00, 0x00, 0x00, 0x00, 0x00, 0x00, 0x00, 0x00, 0x00, 0x00, 0x00, 0x00, 0x00, 0x00, 0x80, 0x04, 0x00, 0x00, 0x06, 0x00, 0x00, 0x20, 0x80, 0x04, 0x41, 0x00, 0x08, 0x00, 0x00, 0x50, 0x80, 0x04, 0x22, 0x00, 0x08, 0x00, 0x00, 0x88, 0x80, 0x04, 0x14, 0x68, 0x08, 0x00, 0x00, 0x04, 0x81, 0x04, 0x08, 0x80, 0x08, 0x00, 0x00, 0x00, 0x80, 0x04, 0x00, 0x00, 0x07, 0x00, 0x00, 0x00, 0x00, 0x00, 0x00, 0x00, 0x00, 0x00, 0x00, 0xfc, 0x01, 0x00, 0x00, 0x00, 0x00, 0x00, 0x00, 0x02, 0xe2, 0x0f, 0xff, 0xf1, 0x07, 0x00, 0x00, 0xb9, 0x04, 0x12, 0x11, 0x09, 0x08, 0x00, 0x00, 0x29, 0x05, 0x22, 0x11, 0x09, 0x08, 0x00, 0x00, 0xfd, 0x04, 0x22, 0x11, 0x09, 0x08, 0x00, 0x00, 0x04, 0x02, 0x12, 0x11, 0x09, 0x08, 0x00, 0x00, 0xf8, 0xe1, 0x0f, 0xee, 0x10, 0x04, 0x00, 0x00, 0x00, 0x00, 0x00, 0x00, 0x00, 0x00, 0x00, 0x00, 0x00, 0x00, 0x00, 0x00, 0x00, 0x00, 0x00, 0x00, 0xfc, 0xe7, 0x3f, 0xff, 0xf1, 0x07, 0x00, 0x00, 0x04, 0x24, 0x22, 0x10, 0x09, 0x08, 0x00, 0x00, 0x04, 0x24, 0x22, 0x10, 0x09, 0x08, 0x00, 0x00, 0x04, 0x24, 0x22, 0x10, 0x89, 0x08, 0x00, 0x00, 0x04, 0x24, 0x20, 0x00, 0x89, 0x08, 0x00, 0x00, 0xf8, 0x23, 0x20, 0x00, 0xf1, 0x04, 0x00, 0x00, 0x00, 0x00, 0x00, 0x00, 0x00, 0x00, 0x00, 0x00, 0x00, 0x00, 0x00, 0x00, 0x00, 0x00, 0x00, 0x00, 0xfc, 0x07, 0x00, 0x02, 0xf8, 0x0f, 0x00, 0x00, 0x40, 0x20, 0x20, 0x01, 0x81, 0x00, 0x00, 0x00, 0x40, 0x20, 0x20, 0x01, 0x81, 0x00, 0x00, 0x00, 0x40, 0xe0, 0x3f, 0x01, 0x41, 0x01, 0x00, 0x00, 0x40, 0x20, 0x20, 0xfe, 0x21, 0x02, 0x00, 0x00, 0xfc, 0x27, 0x20, 0x00, 0x19, 0x0c, 0x00, 0x00, 0x00, 0x00, 0x00, 0x00, 0x00, 0x00, 0x00, 0x00, 0x00, 0x00, 0x00, 0x00, 0x00, 0x00, 0x00, 0x00, 0xfc, 0xe7, 0x3f, 0xff, 0xf1, 0x07, 0x00, 0x00, 0x04, 0x00, 0x18, 0xc0, 0x08, 0x08, 0x00, 0x00, 0x04, 0x00, 0x04, 0x30, 0x08, 0x08, 0x00, 0x00, 0x04, 0x00, 0x04, 0x0c, 0x08, 0x08, 0x00, 0x00, 0x04, 0x00, 0x18, 0x02, 0x08, 0x08, 0x00, 0x00, 0x04, 0xe0, 0x3f, 0xff, 0xf1, 0x07, 0x00, 0x00, 0x00, 0x00, 0x00, 0x00, 0x00, 0x00, 0x00, 0x00, 0x00, 0x00, 0x00, 0x00, 0x00, 0x00, 0x00, 0x00, 0xfc, 0xc7, 0x1f, 0xff, 0x11, 0x07, 0x00, 0x00, 0x40, 0x24, 0x20, 0x10, 0x89, 0x08, 0x00, 0x00, 0x40, 0x24, 0x20, 0x18, 0x89, 0x08, 0x00, 0x00, 0x40, 0xa4, 0x20, 0x14, 0x89, 0x08, 0x00, 0x00, 0x40, 0x64, 0x20, 0x12, 0x89, 0x08, 0x00, 0x00, 0x80, 0xe3, 0x1f, 0xe1, 0x70, 0x04, 0x00, 0x00, 0x00, 0x10, 0x00, 0x00, 0x00, 0x00, 0x00, 0x00, 0x00, 0x00, 0x00, 0x00, 0x00, 0x00, 0x00, 0x00, 0x00, 0xc0, 0x3f, 0xc0, 0x01, 0x0e, 0x00, 0x00, 0x00, 0x24, 0x00, 0x38, 0xc0, 0x01, 0x00, 0x00, 0x00, 0x24, 0x00, 0x07, 0x38, 0x00, 0x00, 0x00, 0xfc, 0x27, 0x00, 0x07, 0xc0, 0x00, 0x00, 0x00, 0x00, 0x24, 0x00, 0x38, 0x38, 0x00, 0x00, 0x00, 0x00, 0xc4, 0x3f, 0xc0, 0xc1, 0x01, 0x00, 0x00, 0x00, 0x00, 0x00, 0x00, 0x00, 0x0e, 0x00, 0x00, 0x00, 0x00, 0x00, 0x00, 0x00, 0x00, 0x00, 0x00, 0x0c, 0x06, 0x30, 0x07, 0x01, 0x00, 0x00, 0x00, 0xb0, 0x61, 0x0c, 0x09, 0x01, 0x00, 0x00, 0x00, 0x40, 0x80, 0x03, 0x11, 0xf9, 0x0f, 0x00, 0x00, 0x40, 0x00, 0x02, 0x21, 0x09, 0x08, 0x00, 0x00, 0xb0, 0x01, 0x0c, 0x41, 0x09, 0x08, 0x00, 0x00, 0x0c, 0x06, 0x30, 0x81, 0x01, 0x00, 0x00, 0x00, 0x00, 0x00, 0x00, 0x00, 0x00, 0x00, 0x00, 0x00, 0x00, 0x00, 0x00, 0x00, 0x00, 0x00, 0x00, 0x00, 0x00, 0x00, 0x00, 0x00, 0x04, 0x00, 0x00, 0x00, 0x00, 0x06, 0x00, 0x40, 0x04, 0x00, 0x00, 0x00, 0x80, 0x21, 0x20, 0x80, 0x04, 0x00, 0x00, 0x00, 0x60, 0x20, 0x20, 0x00, 0x05, 0x00, 0x00, 0x00, 0x18, 0xe0, 0x3f, 0x80, 0x04, 0x00, 0x00, 0x00, 0x04, 0x00, 0x00, 0x40, 0x04, 0x00, 0x00, 0x00, 0x00, 0x00, 0x00, 0x00, 0x00, 0x00, 0x00, 0x00, 0x00, 0x00, 0x00, 0x00, 0x00, 0x00, 0x00, 0x00, 0x00, 0xc0, 0x00, 0xff, 0xf1, 0x00, 0x00, 0x00, 0x00, 0x20, 0x05, 0x21, 0x08, 0x01, 0x00, 0x00, 0x00, 0x22, 0x05, 0x21, 0x08, 0x01, 0x00, 0x00, 0x00, 0x21, 0x05, 0x21, 0x08, 0x01, 0x00, 0x00, 0x80, 0x40, 0x05, 0x21, 0x08, 0x01, 0x00, 0x00, 0x00, 0xe0, 0x03, 0x1e, 0x90, 0x00, 0x00, 0x00, 0x00, 0x00, 0x00, 0x00, 0x00, 0x00, 0x00, 0x00, 0x00, 0x00, 0x00, 0x00, 0x00, 0x00, 0x00, 0x00, 0x78, 0xc0, 0x03, 0x00, 0xe4, 0x00, 0x00, 0x00, 0x84, 0x20, 0x05, 0xff, 0x12, 0x01, 0x00, 0x00, 0x84, 0x20, 0x05, 0x10, 0x13, 0x01, 0x00, 0x00, 0x84, 0x20, 0x05, 0x10, 0x13, 0x01, 0x00, 0x00, 0x84, 0x20, 0x05, 0x00, 0x13, 0x01, 0x00, 0x00, 0xfc, 0x47, 0x03, 0x00, 0xfc, 0x00, 0x00, 0x00, 0x00, 0x00, 0x00, 0x00, 0x00, 0x00, 0x00, 0x00, 0x00, 0x00, 0x00, 0x00, 0x00, 0x00, 0x00, 0x00, 0xfc, 0x07, 0x00, 0x00, 0xf8, 0x0f, 0x00, 0x00, 0x20, 0x00, 0x80, 0x00, 0x20, 0x00, 0x00, 0x00, 0x40, 0x20, 0x44, 0x00, 0x50, 0x00, 0x00, 0x00, 0x40, 0xe0, 0x57, 0x20, 0x50, 0x00, 0x00, 0x00, 0x40, 0x20, 0x80, 0xbf, 0x88, 0x00, 0x00, 0x00, 0x3c, 0x00, 0x00, 0x00, 0x88, 0x00, 0x00, 0x00, 0x00, 0x00, 0x00, 0x00, 0x00, 0x00, 0x00, 0x00, 0x00, 0x00, 0x00, 0x00, 0x00, 0x00, 0x00, 0x00, 0x00, 0xe0, 0x03, 0x00, 0xf0, 0x00, 0x00, 0x00, 0x00, 0x00, 0x04, 0x1f, 0x08, 0x01, 0x00, 0x00, 0x04, 0x04, 0x04, 0x20, 0x08, 0x01, 0x00, 0x00, 0xfc, 0xe7, 0x03, 0x20, 0x08, 0x01, 0x00, 0x00, 0x04, 0x00, 0x04, 0x20, 0x08, 0x01, 0x00, 0x00, 0x00, 0x00, 0x04, 0x1f, 0xf0, 0x00, 0x00, 0x00, 0x00, 0xe0, 0x03, 0x00, 0x00, 0x00, 0x00, 0x00, 0x00, 0x00, 0x00, 0x00, 0x00, 0x00, 0x00, 0x00, 0xff, 0x80, 0x03, 0x3f, 0x90, 0x00, 0x00, 0x00, 0x88, 0x40, 0x04, 0x10, 0x48, 0x01, 0x00, 0x00, 0x88, 0x40, 0x04, 0x20, 0x48, 0x01, 0x00, 0x00, 0x88, 0x40, 0x04, 0x20, 0x28, 0x01, 0x00, 0x00, 0x88, 0x40, 0x04, 0x20, 0x28, 0x01, 0x00, 0x00, 0x70, 0xf8, 0x07, 0x10, 0x90, 0x00, 0x00, 0x00, 0x00, 0x00, 0x00, 0x00, 0x00, 0x00, 0x00, 0x00, 0x00, 0x00, 0x00, 0x00, 0x00, 0x00, 0x00, 0x00, 0x00, 0xc0, 0x07, 0x30, 0x80, 0x01, 0x00, 0x00, 0xf8, 0x27, 0x00, 0x0c, 0x60, 0x00, 0x00, 0x00, 0x84, 0x20, 0x00, 0x03, 0x18, 0x00, 0x00, 0x00, 0x84, 0x20, 0x00, 0x0c, 0x60, 0x00, 0x00, 0x00, 0x04, 0x20, 0x00, 0x30, 0x18, 0x00, 0x00, 0x00, 0x00, 0xc0, 0x07, 0x00, 0x60, 0x00, 0x00, 0x00, 0x00, 0x00, 0x00, 0x00, 0x80, 0x01, 0x00, 0x00, 0x00, 0x00, 0x00, 0x00, 0x00, 0x00, 0x00, 0x00, 0x84, 0x90, 0x07, 0x21, 0x00, 0x00, 0x00, 0x00, 0x48, 0x48, 0x00, 0x23, 0x80, 0x00, 0x00, 0x00, 0x30, 0x48, 0x00, 0x25, 0xf0, 0x07, 0x00, 0x00, 0x30, 0x48, 0x00, 0x29, 0x08, 0x08, 0x00, 0x00, 0x48, 0x48, 0x00, 0x31, 0x08, 0x08, 0x00, 0x00, 0x84, 0xf0, 0x07, 0x21, 0x00, 0x00, 0x00, 0x00, 0x00, 0x00, 0x00, 0x00, 0x00, 0x00, 0x00, 0x00, 0x00, 0x00, 0x00, 0x00, 0x00, 0x00, 0x00, 0x00, 0x00, 0x00, 0x00, 0x40, 0x10, 0x00, 0x00, 0x00, 0x00, 0x00, 0x00, 0x80, 0x88, 0x01, 0x00, 0x00, 0x00, 0x20, 0x20, 0x80, 0x08, 0x00, 0x00, 0x00, 0xfc, 0x27, 0x20, 0x40, 0x08, 0x00, 0x00, 0x00, 0x00, 0xc0, 0x1f, 0x40, 0x88, 0x01, 0x00, 0x00, 0x00, 0x00, 0x02, 0x80, 0x10, 0x00, 0x00, 0x00, 0x00, 0x00, 0x00, 0x00, 0x00, 0x00, 0x00, 0x00, };
