#define font_8x11_width 32
#define font_8x11_height 264
static unsigned char font_8x11_bits[] = {
   0x00, 0x10, 0x28, 0x00, 0x00, 0x10, 0x28, 0x24, 0x00, 0x10, 0x28, 0x24,
   0x00, 0x10, 0x00, 0x7e, 0x00, 0x10, 0x00, 0x24, 0x00, 0x10, 0x00, 0x24,
   0x00, 0x10, 0x00, 0x7e, 0x00, 0x00, 0x00, 0x24, 0x00, 0x10, 0x00, 0x24,
   0x00, 0x00, 0x00, 0x00, 0x00, 0x00, 0x00, 0x00, 0x08, 0x00, 0x0c, 0x10,
   0x3c, 0x86, 0x12, 0x10, 0x4a, 0x49, 0x12, 0x10, 0x0a, 0x29, 0x12, 0x00,
   0x3c, 0x16, 0x0c, 0x00, 0x50, 0x68, 0x52, 0x00, 0x52, 0x94, 0x22, 0x00,
   0x3c, 0x92, 0x22, 0x00, 0x10, 0x61, 0x5c, 0x00, 0x00, 0x00, 0x00, 0x00,
   0x00, 0x00, 0x00, 0x00, 0x20, 0x08, 0x00, 0x00, 0x10, 0x10, 0x00, 0x00,
   0x10, 0x10, 0x00, 0x10, 0x08, 0x20, 0x24, 0x10, 0x08, 0x20, 0x18, 0x10,
   0x08, 0x20, 0x7e, 0xfe, 0x10, 0x10, 0x18, 0x10, 0x10, 0x10, 0x24, 0x10,
   0x20, 0x08, 0x00, 0x10, 0x00, 0x00, 0x00, 0x00, 0x00, 0x00, 0x00, 0x00,
   0x00, 0x00, 0x00, 0x20, 0x00, 0x00, 0x00, 0x20, 0x00, 0x00, 0x00, 0x10,
   0x00, 0x00, 0x00, 0x10, 0x00, 0x00, 0x00, 0x08, 0x00, 0x3e, 0x00, 0x08,
   0x00, 0x00, 0x00, 0x04, 0x20, 0x00, 0x00, 0x04, 0x20, 0x00, 0x18, 0x02,
   0x20, 0x00, 0x00, 0x00, 0x10, 0x00, 0x00, 0x00, 0x38, 0x10, 0x3c, 0x3c,
   0x44, 0x18, 0x42, 0x42, 0x64, 0x14, 0x42, 0x40, 0x54, 0x10, 0x20, 0x40,
   0x54, 0x10, 0x10, 0x38, 0x54, 0x10, 0x08, 0x40, 0x4c, 0x10, 0x04, 0x40,
   0x44, 0x10, 0x02, 0x42, 0x38, 0x7c, 0x7e, 0x3c, 0x00, 0x00, 0x00, 0x00,
   0x00, 0x00, 0x00, 0x00, 0x20, 0x7e, 0x3c, 0x7e, 0x30, 0x02, 0x42, 0x40,
   0x28, 0x02, 0x02, 0x40, 0x24, 0x02, 0x02, 0x20, 0x22, 0x3e, 0x3e, 0x20,
   0x7e, 0x40, 0x42, 0x10, 0x20, 0x40, 0x42, 0x10, 0x20, 0x42, 0x42, 0x08,
   0x20, 0x3c, 0x3c, 0x08, 0x00, 0x00, 0x00, 0x00, 0x00, 0x00, 0x00, 0x00,
   0x3c, 0x3c, 0x00, 0x00, 0x42, 0x42, 0x00, 0x00, 0x42, 0x42, 0x18, 0x00,
   0x42, 0x42, 0x18, 0x00, 0x3c, 0x7c, 0x00, 0x00, 0x42, 0x40, 0x00, 0x0c,
   0x42, 0x40, 0x00, 0x00, 0x42, 0x42, 0x18, 0x00, 0x3c, 0x3c, 0x18, 0x08,
   0x00, 0x00, 0x00, 0x08, 0x00, 0x00, 0x00, 0x04, 0x00, 0x00, 0x00, 0x3c,
   0x00, 0x00, 0x00, 0x42, 0x20, 0x00, 0x04, 0x42, 0x10, 0x7e, 0x08, 0x40,
   0x08, 0x00, 0x10, 0x20, 0x04, 0x00, 0x20, 0x10, 0x08, 0x7e, 0x10, 0x10,
   0x10, 0x00, 0x08, 0x00, 0x20, 0x00, 0x04, 0x10, 0x00, 0x00, 0x00, 0x00,
   0x00, 0x00, 0x00, 0x00, 0x1c, 0x18, 0x3e, 0x3c, 0x22, 0x24, 0x42, 0x42,
   0x49, 0x42, 0x42, 0x02, 0x55, 0x42, 0x42, 0x02, 0x51, 0x7e, 0x3e, 0x02,
   0x5d, 0x42, 0x42, 0x02, 0x55, 0x42, 0x42, 0x02, 0x5d, 0x42, 0x42, 0x42,
   0x31, 0x42, 0x3e, 0x3c, 0x02, 0x00, 0x00, 0x00, 0x1c, 0x00, 0x00, 0x00,
   0x3e, 0x7e, 0x7e, 0x3c, 0x42, 0x02, 0x02, 0x42, 0x42, 0x02, 0x02, 0x02,
   0x42, 0x02, 0x02, 0x02, 0x42, 0x1e, 0x1e, 0x72, 0x42, 0x02, 0x02, 0x42,
   0x42, 0x02, 0x02, 0x42, 0x42, 0x02, 0x02, 0x42, 0x3e, 0x7e, 0x02, 0x3c,
   0x00, 0x00, 0x00, 0x00, 0x00, 0x00, 0x00, 0x00, 0x42, 0x7c, 0x7c, 0x42,
   0x42, 0x10, 0x20, 0x42, 0x42, 0x10, 0x20, 0x22, 0x42, 0x10, 0x20, 0x12,
   0x7e, 0x10, 0x20, 0x0e, 0x42, 0x10, 0x20, 0x12, 0x42, 0x10, 0x20, 0x22,
   0x42, 0x10, 0x22, 0x42, 0x42, 0x7c, 0x1c, 0x42, 0x00, 0x00, 0x00, 0x00,
   0x00, 0x00, 0x00, 0x00, 0x02, 0x42, 0x42, 0x3c, 0x02, 0x66, 0x46, 0x42,
   0x02, 0x66, 0x46, 0x42, 0x02, 0x5a, 0x4a, 0x42, 0x02, 0x42, 0x4a, 0x42,
   0x02, 0x42, 0x52, 0x42, 0x02, 0x42, 0x52, 0x42, 0x02, 0x42, 0x62, 0x42,
   0x7e, 0x42, 0x42, 0x3c, 0x00, 0x00, 0x00, 0x00, 0x00, 0x00, 0x00, 0x00,
   0x3e, 0x3c, 0x3e, 0x3c, 0x42, 0x42, 0x42, 0x42, 0x42, 0x42, 0x42, 0x02,
   0x42, 0x42, 0x42, 0x02, 0x3e, 0x42, 0x3e, 0x3c, 0x02, 0x42, 0x0a, 0x40,
   0x02, 0x52, 0x12, 0x40, 0x02, 0x62, 0x22, 0x42, 0x02, 0x7c, 0x42, 0x3c,
   0x00, 0x80, 0x00, 0x00, 0x00, 0x00, 0x00, 0x00, 0x7c, 0x42, 0x42, 0x82,
   0x10, 0x42, 0x42, 0x82, 0x10, 0x42, 0x42, 0x82, 0x10, 0x42, 0x24, 0x44,
   0x10, 0x42, 0x24, 0x54, 0x10, 0x42, 0x24, 0x54, 0x10, 0x42, 0x18, 0x28,
   0x10, 0x42, 0x18, 0x28, 0x10, 0x3c, 0x18, 0x28, 0x00, 0x00, 0x00, 0x00,
   0x00, 0x00, 0x00, 0x00, 0x42, 0x42, 0x7e, 0x38, 0x42, 0x42, 0x40, 0x08,
   0x24, 0x24, 0x20, 0x08, 0x24, 0x24, 0x10, 0x08, 0x18, 0x18, 0x08, 0x08,
   0x24, 0x08, 0x04, 0x08, 0x24, 0x08, 0x02, 0x08, 0x42, 0x04, 0x02, 0x08,
   0x42, 0x04, 0x7e, 0x38, 0x00, 0x00, 0x00, 0x00, 0x00, 0x00, 0x00, 0x00,
   0x04, 0x38, 0x10, 0x00, 0x04, 0x20, 0x28, 0x00, 0x08, 0x20, 0x44, 0x00,
   0x08, 0x20, 0x00, 0x00, 0x10, 0x20, 0x00, 0x00, 0x10, 0x20, 0x00, 0x00,
   0x20, 0x20, 0x00, 0x00, 0x20, 0x20, 0x00, 0x00, 0x40, 0x38, 0x00, 0x00,
   0x00, 0x00, 0x00, 0x7e, 0x00, 0x00, 0x00, 0x00, 0x00, 0x00, 0x02, 0x00,
   0x08, 0x00, 0x02, 0x00, 0x10, 0x00, 0x02, 0x00, 0x20, 0x3c, 0x3e, 0x3c,
   0x00, 0x40, 0x42, 0x42, 0x00, 0x7c, 0x42, 0x02, 0x00, 0x42, 0x42, 0x02,
   0x00, 0x62, 0x42, 0x42, 0x00, 0x5c, 0x3e, 0x3c, 0x00, 0x00, 0x00, 0x00,
   0x00, 0x00, 0x00, 0x00, 0x40, 0x00, 0x38, 0x00, 0x40, 0x00, 0x04, 0x00,
   0x40, 0x00, 0x04, 0x00, 0x7c, 0x3c, 0x04, 0x3c, 0x42, 0x42, 0x1c, 0x42,
   0x42, 0x7e, 0x04, 0x42, 0x42, 0x02, 0x04, 0x42, 0x42, 0x42, 0x04, 0x7c,
   0x7c, 0x3c, 0x04, 0x40, 0x00, 0x00, 0x00, 0x42, 0x00, 0x00, 0x00, 0x3c,
   0x02, 0x00, 0x00, 0x02, 0x02, 0x10, 0x20, 0x02, 0x02, 0x00, 0x00, 0x02,
   0x02, 0x18, 0x30, 0x02, 0x3a, 0x10, 0x20, 0x62, 0x46, 0x10, 0x20, 0x1a,
   0x42, 0x10, 0x20, 0x06, 0x42, 0x10, 0x20, 0x1a, 0x42, 0x38, 0x20, 0x62,
   0x00, 0x00, 0x24, 0x00, 0x00, 0x00, 0x18, 0x00, 0x18, 0x00, 0x00, 0x00,
   0x10, 0x00, 0x00, 0x00, 0x10, 0x00, 0x00, 0x00, 0x10, 0x6c, 0x38, 0x3c,
   0x10, 0x92, 0x44, 0x42, 0x10, 0x92, 0x44, 0x42, 0x10, 0x92, 0x44, 0x42,
   0x10, 0x92, 0x44, 0x42, 0x38, 0x92, 0x44, 0x3c, 0x00, 0x00, 0x00, 0x00,
   0x00, 0x00, 0x00, 0x00, 0x00, 0x00, 0x00, 0x00, 0x00, 0x00, 0x00, 0x00,
   0x00, 0x00, 0x00, 0x00, 0x3e, 0x7c, 0x3a, 0x3c, 0x42, 0x42, 0x46, 0x42,
   0x42, 0x42, 0x02, 0x0c, 0x42, 0x42, 0x02, 0x30, 0x3e, 0x7c, 0x02, 0x42,
   0x02, 0x40, 0x02, 0x3c, 0x02, 0x40, 0x00, 0x00, 0x02, 0x40, 0x00, 0x00,
   0x04, 0x00, 0x00, 0x00, 0x04, 0x00, 0x00, 0x00, 0x04, 0x00, 0x00, 0x00,
   0x1c, 0x42, 0x22, 0x82, 0x04, 0x42, 0x22, 0x82, 0x04, 0x42, 0x14, 0x54,
   0x04, 0x42, 0x14, 0x54, 0x04, 0x42, 0x08, 0x28, 0x38, 0x3c, 0x08, 0x28,
   0x00, 0x00, 0x00, 0x00, 0x00, 0x00, 0x00, 0x00, 0x00, 0x00, 0x00, 0x30,
   0x00, 0x00, 0x00, 0x08, 0x00, 0x00, 0x00, 0x08, 0x42, 0x42, 0x7e, 0x08,
   0x24, 0x42, 0x20, 0x0c, 0x18, 0x42, 0x10, 0x08, 0x18, 0x42, 0x08, 0x08,
   0x24, 0x7c, 0x04, 0x08, 0x42, 0x40, 0x7e, 0x30, 0x00, 0x42, 0x00, 0x00,
   0x00, 0x3c, 0x00, 0x00, 0x10, 0x18, 0x00, 0x00, 0x10, 0x20, 0x4c, 0x00,
   0x10, 0x20, 0x32, 0x00, 0x10, 0x20, 0x00, 0x24, 0x10, 0x60, 0x00, 0x24,
   0x10, 0x20, 0x00, 0x00, 0x10, 0x20, 0x00, 0x00, 0x10, 0x20, 0x00, 0x42,
   0x10, 0x18, 0x00, 0x3c, 0x00, 0x00, 0x00, 0x00, 0x00, 0x00, 0x00, 0x00 };
